<svg width="334" height="298" viewBox="0 0 334 298" fill="none" xmlns="http://www.w3.org/2000/svg">
<g clip-path="url(#clip0)">
<g filter="url(#filter0_d)">
<path d="M215.181 17.8645C218.128 13.2929 221.006 9.0026 223.673 4.57163C225.708 1.26599 228.515 0 232.235 0C251.606 0.210998 270.976 0.632995 290.417 0.562662C296.172 0.562662 301.155 5.48596 298.768 12.4489C293.645 27.2188 288.732 42.059 283.539 56.7585C282.205 60.5565 282.767 64.2138 288.452 63.6512C290.838 63.4402 293.154 63.5808 295.54 63.5808C300.102 63.6512 303.33 66.4645 303.892 71.0361C304.594 76.5221 305.155 82.008 306.067 87.494C306.278 88.76 307.331 90.448 308.383 90.9403C321.297 96.3559 328.315 106.624 332.035 119.495C335.193 130.397 334.983 141.017 328.596 150.934C324.525 157.194 320.595 163.524 316.595 169.854C313.647 174.496 310.629 179.138 307.822 183.92C307.19 184.975 306.839 186.734 307.331 187.718C310.699 194.751 309.155 200.8 304.523 206.708C301.155 211.069 298.417 215.922 295.54 220.634C293.926 223.377 291.75 225.065 288.662 225.979C278.766 228.933 268.871 232.028 259.045 235.052C252.728 237.021 248.658 234.771 246.903 228.371C246.833 228.019 246.763 227.667 246.623 227.386C246.131 225.698 245.219 224.432 243.254 224.221C241.359 224.08 240.096 224.854 239.183 226.472C225.919 249.681 204.934 257.699 179.528 256.222C171.457 255.73 164.088 252.495 157.28 247.993C153.069 245.25 151.595 245.813 149.49 250.385C144.436 261.286 135.944 269.093 125.347 274.087C116.012 278.447 106.187 281.753 96.3612 284.918C82.9563 289.279 69.411 293.217 55.8657 297.226C49.2685 299.196 45.1979 296.593 43.8644 289.841C38.8815 264.592 33.8985 239.413 28.9155 214.163C23.0903 184.835 17.3353 155.435 11.5102 126.107C7.6501 106.765 3.79005 87.4236 0.140543 68.0118C-0.280554 65.8315 0.280909 63.0182 1.40383 61.0489C5.47444 54.1562 9.96614 47.4043 14.2473 40.582C15.8615 38.05 18.0372 36.573 20.9848 36.0807C40.7062 32.6344 60.4978 29.1178 80.2191 25.6715C108.222 20.7482 136.295 15.8249 164.298 10.9719C174.054 9.28393 183.809 7.80694 193.775 9.70592C200.372 10.9719 206.689 13.0116 212.444 16.4579C213.356 16.8095 214.058 17.2315 215.181 17.8645ZM126.329 186.945C126.259 186.734 126.259 186.523 126.189 186.382C128.645 184.905 131.172 183.569 133.488 181.881C139.945 177.028 143.103 170.557 142.12 162.398C140.717 151.075 132.856 142.705 121.416 139.892C113.626 137.993 105.625 137.923 97.9052 139.611C81.5526 143.127 65.3404 147.136 49.058 151.004C45.7594 151.778 44.3557 154.169 45.0575 157.616C47.7245 170.979 50.4616 184.272 53.1286 197.635C57.1992 217.961 61.3399 238.217 65.4105 258.543C66.2527 262.904 68.4986 264.381 72.7797 263.185C88.4305 258.614 104.011 253.972 119.662 249.259C128.645 246.516 137.137 242.789 144.156 236.388C152.507 228.722 157.069 219.509 155.736 207.833C154.402 196.58 147.735 188.984 136.857 187.156C133.418 186.452 129.838 186.945 126.329 186.945ZM249.64 176.254C249.57 161.203 244.868 146.574 236.797 135.039C225.006 118.37 208.092 111.688 188.371 116.049C168.79 120.339 155.876 131.804 150.963 151.567C147.595 165.282 149.49 178.575 154.683 191.516C159.526 203.402 166.825 213.39 178.264 219.579C196.793 229.637 214.619 225.909 231.042 214.796C244.657 205.653 249.36 191.375 249.64 176.254ZM64.7087 91.5029C64.8491 91.4326 64.9895 91.4326 65.1298 91.3623C65.6211 92.0656 66.1826 92.7689 66.6738 93.4723C74.7449 104.796 82.8159 116.049 90.7465 127.373C92.0098 129.131 93.2731 129.694 95.3786 129.131C102.748 127.302 110.187 125.403 117.627 123.997C123.452 122.871 123.662 121.605 119.802 117.174C109.415 105.359 99.2387 93.4019 88.992 81.5157C87.5883 79.898 87.2374 78.3507 87.7989 76.2407C91.308 62.8072 94.747 49.3736 98.1859 35.94C99.0281 32.7751 98.1859 31.7201 94.9575 32.2827C87.5181 33.5487 80.1489 35.0257 72.7096 36.2214C70.6743 36.573 69.9724 37.5577 69.5513 39.4567C67.516 49.3736 65.4807 59.2202 63.3051 69.0668C63.0945 69.9811 62.1821 70.8251 61.5505 71.6691C60.989 70.8251 60.0065 69.9811 59.7959 69.0668C57.9712 61.1192 56.2166 53.1716 54.5322 45.1536C53.4093 39.8083 53.4093 39.738 48.0754 40.6523C41.0571 41.848 34.109 43.114 27.0907 44.38C23.5816 45.013 23.1605 45.7163 23.8623 49.1626C24.2132 50.8506 24.5642 52.6089 24.9151 54.2969C30.5999 82.0783 36.2145 109.86 41.8993 137.641C42.531 140.877 43.0924 141.228 46.391 140.455C54.3918 138.556 62.3927 136.727 70.4637 134.828C73.6921 134.054 73.9027 133.773 73.2008 130.538C70.3935 117.526 67.516 104.515 64.7087 91.5029ZM325.087 130.116C324.736 128.217 324.315 124.981 323.543 121.816C320.315 109.649 313.717 100.506 300.944 97.2702C294.628 95.6526 288.171 95.2306 281.925 96.4262C269.151 98.8879 256.448 101.983 243.745 104.866C239.534 105.851 239.183 106.624 240.376 110.774C249.009 140.173 257.641 169.502 266.274 198.901C267.467 202.98 269.502 204.106 273.643 202.91C281.152 200.73 288.592 198.479 296.031 196.228C298.979 195.314 299.54 194.4 298.628 191.375C296.101 183.006 293.505 174.566 290.978 166.196C289.996 163.031 290.346 162.469 293.505 161.484C300.102 159.444 306.699 157.264 312.524 153.325C320.104 148.121 324.736 141.017 325.087 130.116ZM181.703 17.1612C175.387 18.1459 165.842 19.6228 156.367 21.2405C152.578 21.8735 151.034 24.8275 152.086 28.7661C157.139 47.8263 162.193 66.9568 167.246 86.017C168.93 92.3469 170.544 98.7472 172.299 105.077C173.211 108.312 175.878 110.352 178.686 109.719C188.581 107.328 198.618 105.429 208.162 102.123C223.603 96.7779 231.323 84.8917 230.972 68.5745C230.761 56.8992 227.322 45.9976 221.006 36.2917C212.584 23.4208 200.372 17.3019 181.703 17.1612ZM259.747 8.1586C259.747 7.9476 259.747 7.80694 259.747 7.59594C251.184 7.59594 242.552 7.59594 233.99 7.59594C230.972 7.59594 230.27 8.43993 230.551 11.3939C230.902 15.4029 231.323 19.4118 231.744 23.4911C232.095 27.4298 232.375 27.7111 236.446 27.6408C242.482 27.5001 248.517 27.2891 254.623 27.1485C257.22 27.0781 257.922 28.2034 257.15 30.5948C256.939 31.1574 256.729 31.7201 256.518 32.2827C249.009 51.4836 241.429 70.6844 233.919 89.8853C232.586 93.2613 233.288 94.2459 236.937 94.1053C252.448 93.6833 267.958 93.2613 283.469 92.8393C287.048 92.7689 290.627 92.5579 294.277 92.4173C296.452 92.3469 297.505 91.2919 297.224 89.0413C296.663 84.54 296.172 79.9684 295.54 75.4671C295.049 71.8098 294.838 71.5988 291.259 71.7394C284.872 72.0208 278.486 72.4428 272.099 72.7241C268.52 72.8648 267.888 71.9504 269.081 68.5041C275.538 50.1473 281.995 31.7201 288.452 13.3632C289.925 9.21359 289.224 8.1586 284.662 8.1586C276.24 8.1586 268.028 8.1586 259.747 8.1586ZM136.716 24.7571C128.084 26.3045 120.223 27.7111 112.433 29.2584C110.398 29.6804 110.538 31.4388 110.959 33.1267C117.837 61.0489 124.715 88.971 131.663 116.893C132.435 119.988 133.067 120.339 136.085 119.636C143.173 118.018 150.262 116.401 157.35 114.713C160.368 114.009 160.789 113.376 160.017 110.352C155.315 92.0656 150.612 73.8494 145.98 55.5629C143.594 46.4196 141.348 37.206 138.892 28.0628C138.401 26.7968 137.278 25.7418 136.716 24.7571Z" fill="#282828"/>
<path d="M126.329 186.945C129.838 186.945 133.417 186.452 136.786 187.015C147.665 188.773 154.332 196.369 155.665 207.693C156.999 219.368 152.367 228.652 144.085 236.248C137.067 242.648 128.575 246.446 119.591 249.119C104.011 253.831 88.3601 258.473 72.7093 263.045C68.4984 264.311 66.2525 262.763 65.3401 258.403C61.2695 238.076 57.1287 217.821 53.0581 197.494C50.3912 184.131 47.6541 170.838 44.9871 157.475C44.2853 154.099 45.6889 151.708 48.9875 150.864C65.2699 146.995 81.4822 142.987 97.8348 139.47C105.555 137.782 113.486 137.852 121.346 139.751C132.856 142.565 140.646 150.934 142.05 162.258C143.033 170.416 139.944 176.887 133.417 181.74C131.101 183.428 128.575 184.764 126.118 186.241C126.259 186.593 126.259 186.734 126.329 186.945ZM106.046 204.739C103.73 205.161 101.414 205.512 99.0981 206.075C97.2733 206.497 96.5013 207.693 96.9224 209.592C98.0453 214.656 99.1682 219.649 100.151 224.713C100.642 227.245 102.116 227.949 104.292 227.245C106.888 226.331 109.625 225.417 112.012 224.01C116.363 221.478 118.047 217.61 117.275 213.46C116.152 207.833 112.363 204.95 106.046 204.739ZM96.3609 164.016C94.3256 164.368 92.2201 164.719 90.1848 165.141C88.5706 165.493 87.5881 166.548 87.939 168.377C88.7812 172.667 89.6234 176.957 90.5358 181.248C90.9569 183.217 92.2903 184.131 94.2554 183.498C96.6417 182.725 99.0981 181.951 101.274 180.755C105.415 178.364 106.888 174.425 105.695 170.276C104.502 166.267 101.414 164.227 96.3609 164.016Z" fill="white"/>
<path d="M249.64 176.254C249.43 191.375 244.657 205.653 230.972 214.867C214.549 225.979 196.722 229.636 178.194 219.649C166.754 213.46 159.455 203.473 154.613 191.586C149.349 178.645 147.454 165.352 150.893 151.637C155.806 131.874 168.719 120.41 188.3 116.119C208.022 111.759 225.006 118.44 236.727 135.109C244.868 146.573 249.57 161.273 249.64 176.254ZM184.511 157.545C185.423 167.392 187.809 176.676 192.301 185.397C193.705 188.14 195.599 190.813 197.775 192.993C200.863 196.158 204.793 197.002 209.145 195.384C213.215 193.907 214.9 190.742 215.531 186.804C215.812 184.975 215.952 183.147 215.882 181.318C215.461 172.878 213.777 164.579 210.548 156.772C208.583 151.989 206.197 147.347 202.126 143.901C196.652 139.189 188.371 141.369 186.195 148.332C185.212 151.215 185.002 154.451 184.511 157.545Z" fill="white"/>
<path d="M64.7086 91.503C67.5159 104.515 70.3934 117.526 73.2007 130.538C73.9025 133.773 73.692 134.054 70.4636 134.828C62.4627 136.727 54.4619 138.626 46.3908 140.455C43.0923 141.228 42.5308 140.877 41.8992 137.641C36.2143 109.86 30.5997 82.0784 24.9149 54.2969C24.564 52.6089 24.2131 50.8506 23.8622 49.1626C23.1603 45.7163 23.5814 45.013 27.0906 44.38C34.0387 43.114 41.057 41.848 48.0752 40.6524C53.4793 39.738 53.4091 39.738 54.5321 45.1537C56.2164 53.1013 57.971 61.1192 59.7958 69.0668C60.0063 70.0515 60.9187 70.8251 61.5503 71.6691C62.182 70.8251 63.0944 70.0515 63.3049 69.0668C65.4806 59.2202 67.5861 49.3736 69.5512 39.4567C69.9021 37.5577 70.6741 36.5731 72.7094 36.2214C80.1488 34.9554 87.518 33.5488 94.9574 32.2828C98.1858 31.7201 98.9578 32.7048 98.1858 35.9401C94.7468 49.3736 91.3079 62.8072 87.7987 76.2408C87.2373 78.3507 87.5882 79.8981 88.9918 81.5157C99.3087 93.402 109.485 105.359 119.802 117.174C123.662 121.605 123.522 122.942 117.626 123.997C110.117 125.403 102.748 127.302 95.3785 129.131C93.273 129.694 92.0097 129.131 90.7464 127.373C82.7456 116.049 74.6745 104.796 66.6737 93.4723C66.1824 92.769 65.6209 92.0656 65.1297 91.3623C64.9893 91.4326 64.8489 91.4326 64.7086 91.503Z" fill="white"/>
<path d="M325.087 130.116C324.736 141.017 320.104 148.05 312.384 153.325C306.559 157.264 299.961 159.444 293.364 161.484C290.206 162.469 289.855 163.031 290.838 166.196C293.364 174.566 295.961 183.006 298.487 191.375C299.4 194.4 298.838 195.314 295.891 196.228C288.451 198.479 280.942 200.73 273.502 202.91C269.432 204.106 267.326 202.98 266.133 198.901C257.501 169.502 248.868 140.173 240.236 110.774C239.043 106.624 239.394 105.851 243.605 104.866C256.308 101.983 269.011 98.8879 281.784 96.4262C288.03 95.2306 294.557 95.6526 300.804 97.2702C313.717 100.576 320.314 109.719 323.543 121.887C324.315 124.981 324.736 128.217 325.087 130.116ZM282.837 140.314C291.61 138.626 294.768 134.125 292.732 126.88C290.908 120.55 284.872 116.541 279.257 117.737C277.503 118.089 276.38 119.003 276.941 120.832C278.836 127.373 280.872 133.773 282.837 140.314Z" fill="white"/>
<path d="M181.703 17.1612C200.372 17.2315 212.584 23.3505 221.006 36.2917C227.392 46.068 230.761 56.8992 230.972 68.5745C231.323 84.8917 223.532 96.7779 208.162 102.123C198.617 105.429 188.581 107.398 178.685 109.719C175.878 110.422 173.211 108.312 172.299 105.077C170.544 98.7472 168.93 92.3469 167.246 86.017C162.192 66.9568 157.139 47.8263 152.086 28.7661C151.033 24.7571 152.577 21.8735 156.367 21.2405C165.842 19.6228 175.387 18.2162 181.703 17.1612ZM204.162 70.4031C203.67 60.2752 201.074 52.2572 196.231 45.013C193.705 41.215 190.195 38.683 185.423 38.6127C183.668 38.6127 182.756 39.105 183.317 41.1447C186.897 53.6639 190.336 66.2535 193.915 78.843C194.968 82.5707 196.793 83.063 199.881 80.8124C203.881 77.788 204.162 73.4977 204.162 70.4031Z" fill="white"/>
<path d="M259.747 8.15861C267.958 8.15861 276.239 8.15861 284.451 8.15861C289.013 8.15861 289.715 9.2136 288.241 13.3632C281.784 31.7201 275.327 50.1473 268.87 68.5041C267.677 71.9504 268.239 72.8648 271.888 72.7241C278.275 72.4428 284.661 72.0208 291.048 71.7394C294.627 71.5988 294.838 71.8098 295.329 75.4671C295.891 79.9684 296.452 84.54 297.014 89.0413C297.294 91.2919 296.242 92.3469 294.066 92.4173C290.487 92.5579 286.907 92.7689 283.258 92.8393C267.747 93.2613 252.237 93.7536 236.727 94.1053C233.077 94.1756 232.445 93.2613 233.709 89.8853C241.218 70.6844 248.798 51.4836 256.308 32.2828C256.518 31.7201 256.799 31.1574 256.939 30.5948C257.781 28.2035 257.08 27.0781 254.413 27.1485C248.377 27.2891 242.341 27.5001 236.235 27.6408C232.165 27.7111 231.954 27.5001 231.533 23.4912C231.182 19.4822 230.761 15.4732 230.34 11.3939C230.059 8.43994 230.761 7.59595 233.779 7.59595C242.341 7.59595 250.974 7.59595 259.536 7.59595C259.747 7.80695 259.747 8.01794 259.747 8.15861Z" fill="white"/>
<path d="M136.716 24.7571C137.348 25.7418 138.4 26.7968 138.751 28.0628C141.208 37.206 143.524 46.4196 145.84 55.5629C150.542 73.8494 155.244 92.0656 159.876 110.352C160.648 113.376 160.227 114.009 157.209 114.713C150.121 116.33 143.032 118.018 135.944 119.636C132.926 120.339 132.295 119.988 131.523 116.893C124.645 88.971 117.767 61.0489 110.819 33.1267C110.397 31.4388 110.257 29.6804 112.292 29.2584C120.223 27.7111 128.013 26.3748 136.716 24.7571Z" fill="white"/>
<path d="M106.046 204.739C112.363 204.95 116.153 207.833 117.275 213.46C118.118 217.61 116.363 221.478 112.012 224.01C109.626 225.417 106.959 226.331 104.292 227.245C102.116 228.019 100.642 227.316 100.151 224.713C99.1683 219.649 98.0454 214.585 96.9224 209.592C96.5013 207.693 97.2733 206.497 99.0981 206.075C101.414 205.512 103.73 205.161 106.046 204.739Z" fill="#282828"/>
<path d="M96.3609 164.016C101.414 164.227 104.572 166.196 105.695 170.276C106.888 174.425 105.415 178.364 101.274 180.755C99.0981 182.021 96.6417 182.795 94.2554 183.498C92.3605 184.131 90.9569 183.217 90.5358 181.248C89.6234 176.957 88.7812 172.667 87.939 168.377C87.5881 166.548 88.5706 165.493 90.1848 165.141C92.2201 164.719 94.3256 164.438 96.3609 164.016Z" fill="#282828"/>
<path d="M184.511 157.545C185.072 154.451 185.212 151.286 186.195 148.262C188.371 141.299 196.652 139.189 202.127 143.831C206.197 147.277 208.513 151.919 210.548 156.701C213.777 164.579 215.461 172.808 215.882 181.248C215.953 183.076 215.812 184.905 215.531 186.734C214.97 190.672 213.215 193.837 209.145 195.314C204.793 196.932 200.863 196.088 197.775 192.923C195.599 190.743 193.705 188.07 192.301 185.327C187.739 176.676 185.423 167.392 184.511 157.545Z" fill="#282828"/>
<path d="M282.837 140.314C280.801 133.773 278.836 127.302 276.941 120.902C276.38 119.073 277.503 118.229 279.257 117.807C284.942 116.612 290.908 120.621 292.732 126.951C294.838 134.125 291.61 138.626 282.837 140.314Z" fill="#282828"/>
<path d="M204.162 70.4031C204.232 73.4275 203.881 77.7881 199.881 80.8124C196.863 83.1334 194.968 82.5707 193.915 78.8431C190.336 66.3238 186.897 53.7343 183.317 41.1447C182.756 39.1051 183.668 38.6127 185.423 38.6127C190.266 38.6831 193.704 41.215 196.231 45.013C201.004 52.2573 203.67 60.2752 204.162 70.4031Z" fill="#282828"/>
</g>
</g>
<defs>
<filter id="filter0_d" x="-5.99927" y="-6" width="354.028" height="317.867" filterUnits="userSpaceOnUse" color-interpolation-filters="sRGB">
<feFlood flood-opacity="0" result="BackgroundImageFix"/>
<feColorMatrix in="SourceAlpha" type="matrix" values="0 0 0 0 0 0 0 0 0 0 0 0 0 0 0 0 0 0 127 0"/>
<feOffset dx="4" dy="4"/>
<feGaussianBlur stdDeviation="5"/>
<feColorMatrix type="matrix" values="0 0 0 0 0 0 0 0 0 0 0 0 0 0 0 0 0 0 0.1 0"/>
<feBlend mode="normal" in2="BackgroundImageFix" result="effect1_dropShadow"/>
<feBlend mode="normal" in="SourceGraphic" in2="effect1_dropShadow" result="shape"/>
</filter>
<clipPath id="clip0">
<rect width="334" height="298" fill="white"/>
</clipPath>
</defs>
</svg>
