<svg version="1.1" xmlns="http://www.w3.org/2000/svg" xmlns:xlink="http://www.w3.org/1999/xlink" x="0px" y="0px"
	 viewBox="0 0 499 379" style="enable-background:new 0 0 499 379;" xml:space="preserve">
<style type="text/css">
	.stX{fill:#FFFFFF;}
	.pathKB{fill:none;stroke:#282828;stroke-width:35;stroke-linecap:round;stroke-linejoin:round;stroke-miterlimit:10;}
	.pathKB{fill:none;stroke:#282828;stroke-width:35;stroke-linecap:round;stroke-miterlimit:10;}
</style>
<g id="white-bubble">
	<path class="stX" d="M499,161c0-19.7-9.5-37.2-24.2-48.1l12.8-17.7c13.2-18.3,15.1-42.4,4.8-62.5C482.2,12.6,461.5,0,439,0h-73
		c-14.1,0-27.1,4.9-37.3,13c-15.3-8.2-32.8-13-51.4-13l-36.4-0.5C230.3-0.6,220,2,211,7c-8.6-4.8-18.5-7.5-29-7.5
		c-9.7,0-18.9,2.3-27,6.4c-18.8-9-41.8-7.9-60.1,4.8C85,3.7,73-0.5,60-0.5c-33.1,0-60,26.9-60,60v100c0,22.8,12.7,42.7,31.5,52.8
		c-0.3,2.5-0.5,5-0.5,7.6v99.5c0,33.1,26.9,60,60,60h45.5c22.8,0,43.6-9.1,58.8-23.8c18.6,14.6,42.1,23.3,67.5,23.3
		c22.1,0,42.7-6.6,60-17.9c10.9,11,26,17.9,42.7,17.9c29.9,0,54.7-21.9,59.2-50.5c41.8-5.3,74.1-41,74.1-84.2
		c0-16.8-4.9-32.4-13.3-45.6C494,188.4,499,175.3,499,161z"/>
</g>
<g id="black-text">
	<path class="pathKB" d="M414.1,269.2h-48.5H414.1c13.7,0,24.9-11.1,24.9-24.9c0-13.7-11.1-24.9-24.9-24.9h-48.5v99.5"/>
	<path class="pathKB" d="M262.9,318.9c-27.5,0-49.8-22.3-49.8-49.8c0-27.5,22.3-49.8,49.8-49.8s49.8,22.3,49.8,49.8
		C312.6,296.7,290.4,318.9,262.9,318.9"/>
	<path class="pathKB" d="M91,319.4h45.5c13.7,0,24.9-11.1,24.9-24.9c0-13.7-11.1-24.9-24.9-24.9H91h45.5c13.7,0,24.9-11.1,24.9-24.9
		s-11.1-24.9-24.9-24.9H91V319.4"/>
	<polyline class="pathKB" points="366,60 439,60 366,161 439,161 	"/>
	<path class="pathKB" d="M240,159.5v-100l36.8,0.5c27.6,0,50,22.4,50,50s-22.4,50-50,50H240"/>
	<line class="pathKB" x1="182" y1="59.5" x2="182" y2="159.5"/>
	<polyline class="pathKB" points="129,60 60,109.5 129,160 	"/>
	<line class="pathKB" x1="60" y1="59.5" x2="60" y2="159.5"/>
</g>
</svg>
